<svg xmlns="http://www.w3.org/2000/svg" viewBox="0 0 1600 1000" preserveAspectRatio="xMidYMid slice">
<!-- Trailmix's contour-line backdrop (the same as the app's), used as a mask so the page's colours tint it. -->
<defs><radialGradient id="f" cx="70%" cy="30%" r="90%"><stop offset="30%" stop-color="#fff"/><stop offset="85%" stop-color="#fff" stop-opacity="0"/></radialGradient>
<mask id="m"><rect width="1600" height="1000" fill="url(#f)"/></mask></defs>
<g fill="none" stroke="#fff" mask="url(#m)">
<path d="M1449 110L1450 112L1451 114L1451 116L1451 118L1450 120L1449 122L1447 123L1445 125L1443 126L1441 128L1439 129L1437 130L1435 131L1434 132L1432 134L1430 135L1428 136L1427 137L1425 138L1423 139L1420 140L1418 140L1416 141L1414 141L1411 141L1409 142L1407 142L1405 142L1402 142L1400 143L1398 143L1395 143L1393 143L1391 142L1389 142L1386 141L1384 140L1382 140L1380 139L1378 139L1375 138L1373 138L1370 137L1368 136L1365 136L1363 135L1360 134L1358 133L1356 131L1355 129L1354 127L1354 125L1354 123L1354 121L1354 119L1355 117L1356 115L1356 113L1357 112L1357 110L1357 108L1358 107L1358 105L1359 104L1360 102L1360 100L1361 99L1362 97L1362 96L1363 94L1364 93L1364 91L1365 89L1366 87L1367 86L1368 84L1370 82L1372 81L1374 80L1376 79L1378 78L1381 78L1383 77L1386 77L1388 77L1390 77L1393 76L1395 76L1398 75L1400 75L1403 74L1405 74L1408 74L1410 74L1413 75L1415 76L1417 77L1419 78L1421 79L1423 81L1424 82L1426 84L1427 85L1429 86L1430 88L1431 89L1433 90L1434 92L1435 93L1436 95L1437 96L1438 97L1439 99L1440 100L1441 102L1443 103L1444 105L1446 106L1447 108L1449 110Z" stroke-width="1.5"/>
<path d="M1499 110L1501 114L1502 118L1502 122L1501 126L1499 130L1497 133L1493 137L1489 139L1485 142L1481 145L1477 147L1474 150L1470 152L1467 155L1464 157L1460 159L1457 162L1453 164L1449 166L1445 167L1440 169L1436 170L1431 171L1427 172L1423 172L1418 173L1414 174L1409 175L1405 175L1400 176L1395 176L1391 176L1386 175L1381 175L1377 174L1373 172L1368 171L1364 170L1360 169L1355 168L1350 167L1345 166L1340 165L1335 164L1329 162L1324 160L1320 158L1316 155L1313 152L1311 148L1309 144L1309 140L1309 136L1310 132L1311 128L1312 124L1312 120L1313 117L1314 113L1315 110L1316 107L1316 103L1317 100L1318 97L1319 94L1321 91L1322 88L1323 85L1324 81L1326 78L1327 75L1328 71L1329 68L1331 64L1333 60L1336 57L1339 54L1343 51L1347 49L1351 48L1356 47L1361 46L1366 45L1371 44L1376 44L1381 43L1385 42L1390 41L1395 40L1400 39L1405 38L1410 38L1415 38L1420 39L1425 40L1430 42L1434 44L1438 47L1442 50L1445 52L1448 55L1451 58L1454 60L1457 63L1460 66L1463 68L1465 71L1468 74L1470 76L1472 79L1474 82L1476 85L1479 88L1481 90L1484 93L1487 96L1490 99L1494 103L1497 106L1499 110Z" stroke-width="1.5"/>
<path d="M1552 110L1554 116L1555 122L1554 128L1552 134L1548 139L1544 145L1538 149L1532 154L1526 158L1520 161L1515 165L1509 169L1504 173L1500 176L1495 180L1490 184L1484 187L1479 190L1473 193L1466 195L1460 197L1453 199L1447 200L1440 202L1434 203L1427 205L1421 206L1414 208L1407 209L1400 209L1393 210L1386 209L1379 209L1372 207L1365 206L1359 204L1352 202L1346 200L1339 199L1332 197L1324 196L1317 195L1309 194L1301 192L1293 189L1286 186L1279 182L1274 178L1270 173L1267 167L1266 161L1265 154L1266 148L1267 142L1268 136L1269 131L1271 125L1272 120L1272 115L1273 110L1274 105L1275 100L1276 95L1278 91L1279 86L1281 81L1283 77L1284 72L1286 67L1287 62L1288 56L1290 51L1292 45L1295 40L1298 34L1302 30L1307 25L1313 22L1320 19L1327 17L1335 15L1342 14L1350 13L1357 12L1364 11L1371 9L1378 8L1385 6L1393 5L1400 3L1408 2L1415 2L1423 3L1430 4L1437 7L1444 9L1450 13L1456 17L1461 21L1467 25L1471 29L1476 32L1481 36L1485 40L1490 44L1494 47L1498 51L1502 55L1505 59L1509 64L1512 68L1515 72L1519 76L1524 80L1528 85L1533 89L1538 94L1543 99L1548 104L1552 110Z" stroke-width="1.5"/>
<path d="M1605 110L1607 118L1607 126L1606 134L1602 142L1596 149L1590 156L1582 162L1574 167L1566 173L1559 178L1551 183L1545 188L1538 193L1532 198L1526 203L1519 208L1512 212L1504 216L1496 220L1488 223L1479 225L1471 228L1462 230L1454 232L1445 235L1436 237L1428 239L1419 241L1409 243L1400 244L1391 244L1381 243L1372 242L1363 240L1354 238L1345 236L1336 234L1327 231L1318 230L1308 228L1298 226L1287 225L1277 223L1266 220L1256 217L1247 212L1239 207L1233 200L1228 193L1225 185L1224 176L1224 168L1224 160L1226 152L1227 144L1228 137L1229 130L1230 123L1231 117L1232 110L1233 104L1234 97L1236 91L1237 84L1239 78L1241 72L1243 65L1245 59L1246 52L1247 45L1249 37L1251 30L1254 22L1257 15L1262 8L1268 2L1275 -4L1284 -8L1293 -12L1303 -14L1313 -16L1323 -18L1333 -19L1343 -21L1352 -22L1361 -24L1371 -27L1380 -29L1390 -31L1400 -32L1410 -33L1420 -33L1430 -32L1440 -29L1449 -26L1458 -22L1466 -17L1474 -13L1481 -7L1488 -3L1494 2L1501 7L1507 12L1514 17L1520 21L1525 26L1531 32L1536 37L1541 42L1545 48L1550 53L1555 59L1561 64L1567 70L1574 75L1581 81L1588 88L1595 95L1601 102L1605 110Z" stroke-width="1.5"/>
<path d="M1659 110L1660 120L1660 130L1656 140L1650 149L1643 158L1634 166L1624 174L1614 181L1605 187L1596 194L1588 200L1580 207L1572 213L1564 219L1556 226L1548 231L1539 237L1529 242L1519 246L1509 250L1499 253L1488 257L1478 260L1467 263L1457 266L1446 270L1435 273L1423 275L1412 277L1400 279L1388 279L1376 278L1364 276L1353 274L1342 271L1331 268L1319 265L1308 263L1296 261L1284 259L1271 257L1257 255L1244 253L1231 249L1219 244L1208 238L1200 230L1193 222L1188 212L1185 202L1184 192L1184 181L1185 171L1186 162L1187 152L1188 143L1189 135L1190 126L1190 118L1191 110L1192 102L1193 94L1195 86L1197 78L1199 70L1201 62L1202 54L1204 45L1205 36L1206 27L1208 18L1210 8L1214 -2L1219 -11L1225 -19L1234 -27L1244 -33L1255 -38L1267 -42L1279 -45L1292 -47L1304 -49L1317 -51L1328 -53L1340 -56L1352 -58L1363 -61L1375 -64L1388 -66L1400 -68L1413 -68L1425 -68L1438 -65L1449 -62L1461 -58L1471 -53L1481 -47L1491 -41L1500 -35L1509 -29L1517 -24L1526 -18L1534 -13L1542 -7L1550 -1L1557 5L1564 12L1570 18L1577 25L1583 32L1589 39L1596 45L1604 52L1613 59L1622 66L1631 74L1640 82L1648 91L1654 100L1659 110Z" stroke-width="2.4"/>
<path d="M1713 110L1713 122L1711 134L1706 146L1698 157L1688 167L1677 177L1665 185L1654 194L1643 202L1633 209L1623 217L1614 225L1605 233L1596 240L1586 248L1576 255L1565 261L1554 267L1542 272L1530 277L1518 281L1506 286L1493 290L1481 295L1468 299L1456 303L1442 307L1428 311L1414 313L1400 314L1386 314L1371 312L1357 310L1343 307L1330 304L1316 301L1303 298L1289 295L1274 293L1259 291L1243 289L1227 286L1211 283L1196 278L1182 271L1171 263L1161 253L1154 243L1149 231L1146 219L1145 206L1145 194L1146 182L1147 171L1148 160L1149 150L1149 139L1149 130L1150 120L1150 110L1151 100L1153 91L1154 81L1156 72L1158 62L1159 52L1161 42L1162 31L1162 20L1163 9L1165 -3L1168 -15L1173 -26L1180 -37L1188 -47L1199 -55L1212 -62L1226 -68L1240 -72L1256 -75L1271 -78L1286 -80L1300 -83L1314 -85L1328 -89L1342 -92L1356 -96L1370 -99L1385 -101L1400 -103L1415 -103L1430 -101L1445 -98L1458 -94L1472 -88L1484 -82L1496 -76L1508 -69L1519 -63L1530 -56L1540 -50L1551 -44L1561 -37L1571 -30L1580 -23L1589 -16L1597 -8L1605 -0L1613 8L1621 15L1630 23L1639 31L1649 39L1660 47L1671 56L1683 66L1693 76L1702 86L1709 98L1713 110Z" stroke-width="1.5"/>
<path d="M1766 110L1766 124L1761 138L1753 151L1743 164L1731 176L1718 186L1705 197L1692 206L1680 216L1668 225L1658 234L1648 243L1637 252L1627 261L1616 270L1604 278L1591 285L1578 291L1565 298L1551 303L1537 309L1523 315L1509 321L1495 327L1481 333L1465 338L1450 343L1434 347L1417 349L1400 350L1383 349L1366 347L1350 344L1334 341L1318 337L1302 334L1286 331L1269 328L1251 326L1233 324L1215 321L1196 318L1178 313L1161 306L1146 298L1134 288L1124 276L1116 263L1112 249L1109 234L1108 220L1108 206L1109 193L1109 180L1109 168L1110 156L1109 144L1109 133L1109 121L1110 110L1111 99L1112 88L1113 76L1115 65L1116 54L1117 42L1117 30L1118 17L1118 4L1119 -10L1121 -24L1125 -38L1131 -51L1140 -63L1151 -74L1165 -84L1180 -91L1197 -97L1215 -101L1233 -105L1250 -108L1267 -111L1284 -114L1300 -117L1316 -121L1332 -126L1349 -130L1365 -133L1383 -136L1400 -137L1417 -136L1435 -134L1451 -130L1467 -125L1483 -118L1497 -111L1511 -104L1525 -97L1538 -90L1551 -83L1563 -76L1576 -69L1588 -62L1600 -54L1611 -46L1621 -38L1631 -29L1641 -19L1650 -10L1660 -1L1671 8L1683 17L1695 26L1709 36L1723 46L1736 57L1747 69L1757 82L1763 96L1766 110Z" stroke-width="1.5"/>
<path d="M1819 110L1816 126L1809 142L1799 157L1786 171L1772 184L1757 196L1743 207L1729 218L1716 229L1704 240L1692 251L1681 261L1670 272L1658 282L1645 291L1631 300L1617 308L1602 316L1587 324L1572 331L1557 338L1541 345L1526 353L1510 360L1493 367L1476 374L1458 379L1439 383L1419 385L1400 386L1381 385L1361 382L1343 378L1324 374L1306 371L1287 367L1268 364L1249 362L1228 359L1207 357L1186 354L1165 349L1145 343L1127 334L1111 324L1098 311L1088 297L1081 282L1076 266L1074 250L1072 234L1072 218L1072 203L1072 189L1071 175L1071 162L1070 149L1069 136L1069 123L1069 110L1069 97L1070 84L1072 71L1072 58L1073 45L1073 31L1072 17L1072 2L1072 -14L1073 -30L1075 -46L1081 -62L1089 -77L1100 -90L1114 -102L1131 -111L1149 -119L1169 -125L1190 -130L1210 -134L1230 -137L1249 -141L1268 -145L1286 -149L1304 -154L1323 -159L1341 -164L1361 -167L1380 -170L1400 -170L1420 -169L1439 -165L1458 -161L1476 -154L1493 -147L1510 -140L1526 -133L1541 -125L1557 -118L1572 -111L1587 -103L1602 -96L1616 -87L1629 -79L1642 -69L1654 -59L1665 -49L1677 -39L1688 -29L1701 -19L1714 -8L1728 2L1744 12L1760 23L1775 35L1790 49L1803 63L1812 78L1818 94L1819 110Z" stroke-width="1.5"/>
<path d="M1870 110L1865 128L1855 145L1843 162L1828 177L1812 192L1796 205L1780 218L1765 230L1752 243L1739 255L1726 267L1714 279L1701 291L1688 302L1674 313L1658 323L1643 332L1627 341L1610 350L1594 358L1577 367L1560 376L1543 386L1525 395L1506 403L1486 410L1465 416L1444 420L1422 422L1400 422L1378 420L1356 417L1335 413L1314 408L1294 404L1272 401L1251 398L1228 396L1205 393L1181 390L1158 386L1135 380L1113 372L1094 362L1077 349L1064 334L1054 318L1047 300L1042 282L1040 264L1038 247L1037 230L1036 214L1035 198L1033 183L1031 168L1030 153L1029 139L1028 124L1028 110L1028 96L1028 81L1029 66L1029 52L1028 36L1027 20L1025 3L1024 -14L1023 -32L1025 -50L1029 -69L1036 -86L1046 -102L1060 -116L1078 -129L1098 -139L1119 -147L1142 -153L1165 -158L1188 -162L1210 -166L1231 -171L1252 -176L1272 -181L1293 -187L1313 -192L1334 -197L1356 -201L1378 -203L1400 -202L1422 -200L1443 -196L1464 -190L1484 -184L1504 -176L1522 -169L1540 -161L1558 -154L1576 -146L1594 -138L1611 -131L1628 -122L1644 -113L1659 -103L1673 -92L1687 -81L1700 -70L1714 -59L1727 -47L1742 -36L1758 -25L1776 -14L1794 -2L1812 11L1830 25L1845 40L1858 56L1867 74L1871 92L1870 110Z" stroke-width="1.5"/>
<path d="M1920 110L1912 130L1899 149L1884 167L1867 184L1850 199L1832 214L1816 228L1801 242L1787 256L1773 270L1760 283L1747 297L1733 310L1718 322L1702 334L1686 345L1669 356L1651 366L1634 376L1616 387L1598 398L1580 409L1560 420L1540 430L1519 440L1497 448L1474 454L1449 458L1425 459L1400 458L1376 455L1352 451L1328 447L1305 442L1281 438L1257 435L1233 433L1208 430L1182 428L1155 424L1129 419L1105 411L1082 401L1062 388L1045 373L1031 356L1021 337L1014 318L1010 298L1007 278L1004 259L1002 241L1000 224L998 207L995 190L992 174L990 158L988 142L987 126L986 110L986 94L985 78L985 61L983 44L981 27L979 9L976 -11L974 -31L974 -51L976 -71L981 -91L991 -110L1004 -128L1021 -143L1042 -155L1065 -165L1090 -173L1116 -180L1141 -185L1166 -190L1190 -195L1213 -200L1236 -206L1258 -213L1281 -219L1304 -225L1327 -230L1351 -233L1376 -235L1400 -234L1424 -231L1448 -226L1470 -220L1493 -213L1514 -205L1535 -197L1555 -190L1576 -182L1596 -175L1616 -167L1635 -158L1654 -149L1672 -139L1689 -128L1705 -116L1721 -104L1736 -91L1751 -79L1768 -67L1785 -55L1804 -43L1824 -30L1845 -17L1866 -2L1885 14L1901 31L1913 50L1921 69L1923 90L1920 110Z" stroke-width="2.4"/>
<path d="M1967 110L1956 132L1941 152L1924 171L1905 190L1886 207L1868 223L1852 238L1836 254L1822 269L1808 284L1794 299L1779 314L1764 328L1748 342L1731 355L1713 368L1695 380L1676 392L1658 404L1639 417L1620 429L1600 442L1579 455L1557 467L1533 478L1508 486L1482 492L1455 495L1427 496L1400 494L1373 490L1347 486L1321 481L1295 476L1269 473L1242 470L1215 467L1187 465L1158 462L1129 457L1101 451L1075 441L1051 429L1031 414L1014 396L1001 376L991 356L983 334L978 313L974 292L971 272L968 253L964 234L960 216L956 198L952 180L949 163L947 145L945 128L944 110L942 92L941 74L939 56L936 37L932 17L928 -4L925 -25L922 -48L922 -70L926 -93L933 -114L946 -135L962 -153L983 -168L1007 -181L1034 -191L1062 -199L1090 -206L1118 -211L1145 -217L1171 -223L1196 -230L1220 -237L1245 -244L1269 -251L1295 -258L1320 -262L1347 -265L1373 -266L1400 -264L1426 -260L1452 -255L1477 -249L1501 -241L1524 -234L1548 -227L1571 -219L1594 -212L1616 -204L1639 -196L1660 -187L1681 -177L1701 -165L1720 -153L1737 -140L1755 -127L1772 -113L1790 -100L1809 -87L1830 -74L1852 -61L1875 -47L1898 -32L1920 -15L1940 3L1956 22L1967 43L1973 65L1973 88L1967 110Z" stroke-width="1.5"/>
<path d="M2011 110L1997 133L1980 155L1961 176L1941 195L1922 214L1904 231L1887 248L1871 265L1857 282L1842 299L1827 316L1812 332L1795 347L1778 362L1760 376L1741 390L1722 404L1702 418L1683 433L1663 447L1642 463L1621 478L1598 492L1573 505L1547 516L1519 525L1490 530L1460 532L1430 532L1400 529L1371 525L1342 520L1313 515L1285 511L1256 507L1227 505L1197 502L1166 500L1134 496L1104 490L1074 482L1047 470L1022 455L1002 438L985 418L971 396L961 373L954 350L948 328L943 306L938 284L933 264L928 244L922 225L917 206L912 187L908 168L905 149L903 129L900 110L898 91L895 71L891 50L886 29L881 7L876 -16L871 -40L869 -65L870 -90L875 -114L886 -137L901 -159L922 -177L946 -193L974 -205L1004 -216L1035 -224L1066 -231L1096 -237L1124 -244L1152 -251L1178 -259L1205 -267L1231 -275L1258 -283L1285 -289L1314 -294L1342 -296L1371 -296L1400 -294L1428 -289L1456 -284L1483 -277L1509 -271L1535 -264L1561 -257L1586 -250L1612 -243L1637 -235L1662 -226L1686 -216L1708 -204L1730 -192L1750 -178L1770 -164L1789 -150L1809 -135L1830 -121L1852 -107L1876 -94L1901 -79L1927 -64L1952 -47L1975 -28L1995 -8L2011 14L2020 37L2023 61L2020 86L2011 110Z" stroke-width="1.5"/>
<path d="M2053 110L2036 135L2017 158L1997 180L1976 201L1957 220L1938 240L1922 258L1906 277L1891 295L1876 314L1861 332L1844 349L1827 366L1808 382L1789 398L1769 414L1749 430L1729 446L1709 463L1688 480L1666 497L1643 514L1618 530L1590 544L1561 555L1530 563L1498 568L1465 569L1432 568L1400 564L1368 559L1337 554L1306 549L1275 545L1244 542L1211 540L1178 538L1145 535L1111 530L1079 522L1048 512L1019 498L995 481L974 461L957 438L943 415L933 390L925 366L918 342L911 319L904 297L898 276L891 255L884 234L877 214L871 193L867 173L863 152L859 131L856 110L852 89L847 67L841 44L835 21L827 -4L821 -29L816 -56L814 -83L817 -110L825 -136L838 -160L858 -182L882 -201L911 -216L942 -229L975 -239L1009 -248L1042 -255L1073 -263L1104 -270L1133 -278L1161 -287L1189 -297L1218 -306L1247 -314L1277 -320L1307 -324L1338 -326L1369 -325L1400 -323L1430 -318L1460 -313L1489 -307L1518 -300L1546 -294L1574 -288L1603 -281L1631 -274L1659 -266L1686 -256L1711 -245L1736 -233L1759 -219L1782 -204L1803 -189L1825 -173L1847 -158L1871 -144L1896 -129L1923 -114L1951 -98L1980 -81L2006 -62L2030 -42L2050 -19L2064 6L2071 31L2071 58L2065 84L2053 110Z" stroke-width="1.5"/>
<path d="M2092 110L2073 136L2052 161L2031 184L2010 206L1991 227L1973 248L1957 268L1941 288L1926 309L1910 328L1894 348L1877 366L1858 385L1839 403L1819 420L1799 438L1778 456L1758 475L1737 494L1715 514L1691 533L1666 552L1638 569L1608 583L1575 594L1541 602L1506 605L1470 605L1435 603L1400 598L1366 593L1332 588L1299 583L1265 580L1231 578L1196 575L1160 573L1124 569L1088 563L1054 554L1022 541L993 524L969 505L948 482L930 458L917 432L906 407L896 381L887 357L879 333L870 310L862 288L853 266L844 244L837 222L830 200L824 178L819 155L815 133L810 110L804 87L797 63L789 38L780 12L771 -15L764 -43L759 -72L759 -101L764 -130L775 -157L792 -182L816 -204L845 -223L877 -239L912 -251L948 -262L984 -271L1019 -279L1052 -287L1083 -296L1114 -306L1144 -316L1174 -326L1205 -336L1236 -344L1268 -350L1301 -354L1334 -355L1367 -354L1400 -351L1432 -347L1464 -342L1495 -337L1527 -331L1558 -326L1589 -320L1620 -314L1650 -307L1681 -298L1710 -287L1738 -275L1764 -261L1789 -246L1813 -230L1837 -214L1861 -198L1887 -182L1913 -166L1942 -151L1972 -135L2003 -118L2033 -99L2061 -78L2085 -55L2103 -30L2115 -3L2119 26L2116 54L2107 83L2092 110Z" stroke-width="1.5"/>
<path d="M2128 110L2108 137L2086 163L2064 188L2044 211L2025 234L2008 256L1992 278L1976 300L1961 322L1945 343L1927 364L1909 384L1890 404L1870 423L1850 443L1829 463L1809 484L1787 505L1766 527L1742 549L1717 571L1689 591L1658 608L1625 623L1589 633L1552 640L1514 642L1475 641L1437 637L1400 632L1363 627L1327 622L1291 618L1255 615L1218 613L1180 611L1142 608L1104 603L1066 595L1031 584L998 569L969 550L944 527L923 503L905 476L891 450L879 423L868 397L857 371L846 347L836 323L825 300L814 277L804 253L795 230L788 206L781 183L775 159L769 135L762 110L754 85L745 59L734 32L723 3L713 -26L706 -57L702 -88L703 -120L711 -150L726 -178L748 -204L776 -226L809 -245L845 -260L883 -273L922 -283L960 -293L996 -302L1030 -312L1063 -322L1095 -333L1127 -344L1159 -355L1192 -365L1225 -373L1260 -379L1295 -383L1330 -384L1365 -383L1400 -380L1434 -376L1468 -372L1502 -367L1536 -363L1570 -359L1603 -354L1637 -347L1670 -340L1703 -330L1734 -319L1764 -305L1792 -290L1819 -273L1845 -256L1871 -239L1898 -222L1927 -206L1957 -190L1989 -173L2022 -156L2055 -137L2087 -116L2115 -93L2138 -68L2154 -40L2163 -10L2164 20L2158 51L2146 81L2128 110Z" stroke-width="2.4"/>
<path d="M2162 110L2141 139L2118 166L2097 192L2077 217L2059 241L2043 265L2027 288L2012 312L1996 335L1979 358L1961 380L1942 402L1923 423L1902 445L1882 467L1861 490L1840 513L1819 537L1796 562L1771 586L1743 609L1713 630L1679 648L1642 662L1603 672L1563 677L1521 678L1480 675L1440 671L1400 665L1361 660L1323 655L1284 652L1245 650L1205 648L1165 646L1124 642L1084 636L1045 626L1008 612L975 595L946 573L920 549L899 522L881 494L866 466L852 439L839 412L826 386L813 361L800 337L787 312L774 288L763 263L753 238L744 213L737 188L729 162L721 136L712 110L701 83L690 55L677 25L664 -6L654 -38L646 -71L644 -105L648 -138L660 -169L679 -198L706 -224L738 -246L775 -265L815 -280L856 -293L897 -304L936 -314L974 -325L1009 -336L1043 -347L1077 -360L1110 -372L1144 -384L1179 -394L1215 -402L1251 -408L1289 -411L1326 -412L1363 -411L1400 -409L1437 -406L1473 -403L1509 -400L1545 -397L1582 -393L1619 -388L1655 -382L1691 -374L1726 -363L1759 -350L1790 -335L1820 -319L1849 -301L1878 -283L1907 -265L1936 -248L1968 -231L2002 -214L2037 -196L2073 -178L2108 -157L2140 -134L2168 -108L2189 -80L2203 -49L2209 -17L2207 15L2197 48L2182 80L2162 110Z" stroke-width="1.5"/>
<path d="M2194 110L2172 140L2150 168L2130 196L2111 222L2094 248L2078 273L2063 298L2047 324L2031 348L2014 373L1996 397L1976 420L1956 444L1936 468L1916 492L1895 517L1874 544L1852 571L1828 598L1801 624L1771 649L1737 670L1700 688L1659 701L1617 709L1573 713L1529 712L1485 709L1442 704L1400 698L1359 693L1318 689L1277 687L1235 685L1193 683L1150 681L1107 676L1065 668L1025 656L987 640L953 619L924 596L898 569L876 541L857 512L840 483L824 455L809 428L793 402L778 376L762 351L748 325L734 299L721 273L710 247L700 220L691 193L682 166L671 138L660 110L647 81L632 50L617 18L603 -15L593 -50L586 -86L587 -121L594 -156L610 -188L635 -217L666 -243L703 -265L744 -283L787 -299L831 -312L873 -324L913 -335L952 -347L988 -359L1024 -373L1059 -386L1094 -400L1130 -412L1167 -422L1205 -430L1243 -436L1283 -439L1322 -440L1361 -440L1400 -439L1439 -437L1477 -435L1516 -434L1555 -432L1595 -429L1634 -424L1673 -418L1712 -409L1749 -397L1784 -382L1817 -366L1849 -348L1880 -329L1911 -310L1942 -292L1975 -274L2011 -256L2048 -239L2086 -220L2124 -200L2160 -177L2192 -151L2219 -123L2238 -92L2249 -58L2251 -24L2246 11L2233 45L2215 78L2194 110Z" stroke-width="1.5"/>
<path d="M276 940L276 942L276 944L275 946L275 948L274 950L272 952L271 954L269 956L268 958L266 959L265 961L263 962L261 964L260 966L258 967L256 969L254 970L251 971L249 972L246 973L243 973L241 974L238 974L236 974L233 975L231 976L228 977L226 978L223 979L220 980L217 981L214 982L211 983L207 983L204 983L201 983L198 982L195 980L193 979L190 977L188 975L186 974L184 972L183 970L181 968L180 966L178 964L177 962L176 960L175 959L175 957L174 955L174 953L173 951L172 949L171 947L170 946L169 944L167 942L166 940L165 938L165 936L164 934L165 932L165 929L166 927L168 926L169 924L171 922L173 920L174 919L176 917L177 915L179 913L180 911L181 909L183 907L185 906L188 904L190 903L193 902L196 901L199 900L202 900L205 900L208 900L211 900L214 900L217 901L220 901L223 902L225 902L228 903L231 904L233 905L235 906L237 907L240 908L242 909L244 910L247 910L249 911L252 911L256 912L259 912L262 913L265 914L268 915L270 916L272 918L274 920L275 922L276 925L276 927L276 929L276 931L276 934L276 936L276 938L276 940Z" stroke-width="1.5"/>
<path d="M325 940L324 944L324 948L322 952L321 955L319 959L316 963L314 966L311 969L308 972L305 975L302 979L300 982L297 985L294 988L290 991L287 993L283 996L278 998L274 999L269 1001L264 1002L259 1003L254 1004L249 1005L245 1006L240 1008L235 1010L231 1012L225 1014L220 1017L214 1019L208 1020L202 1021L196 1021L190 1020L184 1019L179 1017L174 1014L169 1012L165 1008L161 1005L158 1002L154 999L151 995L148 992L145 988L143 985L141 981L139 978L138 974L137 971L136 967L134 964L133 960L131 957L129 954L126 951L123 947L121 944L118 940L117 936L116 932L116 928L116 924L118 920L120 917L123 913L126 910L129 906L132 903L134 900L137 897L139 893L142 889L145 886L148 882L151 879L155 876L160 873L165 871L170 869L175 868L181 867L187 867L193 867L198 867L204 867L209 867L215 868L220 868L225 869L230 870L235 872L240 874L244 876L248 877L252 879L257 881L261 882L265 883L270 884L276 885L282 885L288 886L294 887L300 888L305 890L311 893L315 896L318 899L321 903L323 907L324 911L324 916L325 920L325 924L325 928L325 932L325 936L325 940Z" stroke-width="1.5"/>
<path d="M372 940L372 946L370 951L369 957L366 962L363 968L359 973L356 977L352 982L348 987L344 992L340 996L337 1001L332 1006L328 1010L323 1014L318 1018L312 1022L305 1024L298 1027L291 1029L284 1030L277 1032L270 1033L263 1035L256 1038L250 1041L243 1044L236 1048L228 1051L220 1054L211 1057L203 1059L194 1059L185 1059L176 1058L168 1055L160 1052L153 1048L147 1044L141 1039L135 1034L130 1029L125 1025L120 1020L116 1015L112 1010L109 1005L106 1000L104 994L101 989L99 984L97 979L95 975L92 970L89 965L85 961L81 956L77 951L73 946L69 940L67 934L66 928L66 922L67 917L70 911L73 906L77 901L82 896L86 891L90 886L94 881L97 876L101 871L105 865L109 860L114 855L119 850L125 846L132 842L139 839L147 837L156 836L164 835L172 834L180 834L189 834L197 834L205 834L212 835L220 836L227 837L235 839L242 841L248 844L255 846L261 849L267 851L274 853L280 855L287 856L295 857L303 857L312 858L321 859L330 861L339 863L347 866L354 870L360 875L364 880L368 886L370 892L371 898L372 904L372 911L372 917L373 923L373 928L373 934L372 940Z" stroke-width="1.5"/>
<path d="M420 940L418 947L416 955L413 962L410 969L406 976L401 982L397 989L392 995L387 1001L383 1008L378 1014L374 1020L369 1027L363 1033L356 1038L349 1043L341 1048L332 1051L323 1054L314 1057L304 1059L295 1061L286 1064L277 1067L269 1071L260 1075L251 1079L241 1084L231 1089L220 1093L209 1096L197 1097L185 1098L174 1097L163 1094L152 1090L142 1086L133 1080L125 1075L117 1069L109 1063L103 1056L96 1050L90 1044L85 1038L80 1031L75 1024L72 1017L69 1011L66 1004L63 998L59 991L56 985L51 980L46 974L40 968L34 961L28 955L23 947L19 940L16 932L15 924L16 917L18 909L22 902L27 895L32 888L38 881L43 875L48 869L53 862L57 855L62 848L67 841L73 834L79 828L87 822L95 817L105 812L115 809L125 806L136 804L147 803L158 802L169 802L179 802L190 802L200 802L210 803L220 804L230 806L239 808L248 811L257 814L266 818L274 821L282 823L291 825L300 827L310 828L321 828L332 829L344 830L356 831L368 833L379 837L389 841L398 847L405 854L410 861L414 869L416 877L418 885L419 894L419 902L420 909L420 917L420 925L420 932L420 940Z" stroke-width="1.5"/>
<path d="M466 940L464 949L461 958L457 967L453 976L448 984L442 992L437 1000L432 1008L427 1016L422 1024L417 1032L411 1040L405 1048L398 1055L390 1062L381 1068L370 1074L359 1078L348 1082L336 1085L325 1088L314 1091L303 1095L292 1099L281 1104L270 1110L259 1116L247 1122L234 1128L220 1132L206 1135L191 1136L177 1136L163 1134L149 1130L137 1125L125 1119L114 1112L103 1105L94 1098L84 1090L76 1083L68 1075L61 1067L54 1060L48 1051L43 1043L39 1035L34 1027L30 1019L26 1011L21 1004L16 996L9 989L2 982L-6 975L-15 967L-22 958L-29 949L-33 940L-36 930L-37 921L-35 911L-31 902L-26 893L-20 884L-13 875L-7 867L-0 859L6 851L11 842L17 834L23 825L29 816L37 808L46 801L55 794L66 788L78 783L91 779L104 776L117 774L131 772L144 771L157 770L170 770L183 770L195 770L208 771L220 773L232 775L244 778L255 781L266 785L276 789L287 792L298 794L309 796L321 797L334 798L348 798L362 799L377 800L392 802L407 805L420 810L432 816L442 824L449 833L455 842L459 852L462 862L464 873L465 883L466 893L466 902L467 912L467 921L467 931L466 940Z" stroke-width="2.4"/>
<path d="M511 940L508 951L504 962L500 972L494 982L489 992L483 1001L477 1011L472 1021L466 1030L461 1040L456 1050L449 1060L442 1070L434 1078L424 1087L412 1094L400 1100L386 1105L373 1109L359 1113L346 1117L332 1122L320 1127L307 1133L294 1139L281 1147L267 1154L252 1161L237 1167L220 1171L203 1174L186 1175L169 1173L152 1170L136 1165L122 1158L108 1151L95 1143L82 1134L71 1126L60 1117L50 1108L41 1100L32 1090L24 1081L17 1071L11 1062L6 1052L1 1043L-5 1033L-11 1025L-17 1016L-25 1008L-35 1000L-45 991L-55 982L-65 972L-74 962L-81 951L-86 940L-89 928L-89 917L-86 905L-81 894L-74 883L-67 873L-59 863L-51 853L-44 843L-37 833L-30 823L-24 813L-16 802L-8 792L1 783L12 774L25 766L38 760L53 754L68 750L83 747L99 744L115 742L130 741L145 739L160 738L176 738L191 738L205 739L220 741L234 744L248 748L261 752L274 756L287 760L300 763L313 765L327 766L342 767L359 767L376 767L394 768L412 769L430 772L447 777L462 783L475 792L485 801L494 812L500 824L504 836L507 848L509 860L510 872L511 884L512 895L513 907L513 918L512 929L511 940Z" stroke-width="1.5"/>
<path d="M555 940L551 952L547 965L541 977L535 988L529 1000L523 1011L517 1022L512 1034L507 1045L502 1057L496 1069L488 1080L480 1092L470 1102L458 1111L444 1119L429 1126L414 1132L398 1137L382 1142L367 1147L352 1153L337 1160L323 1167L308 1176L292 1184L276 1193L258 1200L239 1207L220 1211L200 1213L180 1213L161 1210L142 1205L124 1198L107 1190L91 1182L76 1173L62 1163L49 1153L36 1144L25 1134L14 1123L4 1113L-5 1102L-13 1091L-20 1080L-26 1069L-33 1058L-40 1048L-48 1038L-57 1029L-68 1020L-80 1010L-93 1000L-105 990L-117 978L-128 966L-135 953L-140 940L-142 926L-140 913L-136 899L-130 886L-122 874L-113 862L-104 850L-96 839L-88 827L-80 815L-73 803L-65 791L-56 779L-45 768L-34 757L-20 748L-5 740L11 733L28 727L45 722L63 718L81 715L99 713L116 710L134 709L151 707L169 707L186 707L203 708L220 711L236 714L252 718L268 722L283 726L298 730L314 733L330 734L347 735L365 735L385 735L405 735L426 735L448 738L468 742L487 748L503 756L517 767L528 779L537 792L543 806L548 820L551 834L553 848L555 862L556 875L557 888L558 901L558 914L557 927L555 940Z" stroke-width="1.5"/>
<path d="M597 940L593 954L588 968L581 981L575 994L569 1007L563 1020L558 1033L553 1047L548 1060L543 1074L536 1088L528 1101L518 1114L506 1125L492 1136L476 1145L459 1152L441 1159L423 1165L405 1171L388 1178L372 1185L355 1194L339 1203L322 1213L303 1223L284 1232L264 1240L242 1246L220 1250L197 1251L175 1249L153 1245L132 1239L112 1231L93 1222L75 1212L58 1202L42 1191L27 1180L13 1169L-0 1158L-12 1147L-23 1135L-33 1122L-42 1110L-50 1098L-58 1086L-67 1074L-76 1063L-87 1052L-99 1042L-113 1032L-127 1021L-143 1010L-158 998L-171 985L-182 970L-190 955L-195 940L-195 924L-192 909L-186 894L-178 879L-169 865L-159 851L-150 838L-140 824L-132 811L-123 797L-115 784L-105 770L-94 757L-82 744L-68 733L-52 722L-35 714L-16 706L4 700L24 695L43 691L63 687L83 683L103 680L122 678L142 676L162 675L181 676L201 677L220 680L239 684L257 688L274 692L292 696L309 700L328 702L347 702L367 702L389 701L412 701L436 701L460 702L484 705L506 711L527 719L544 730L559 742L571 757L579 772L586 788L590 804L594 820L596 836L598 851L600 867L602 882L602 896L602 911L600 926L597 940Z" stroke-width="1.5"/>
<path d="M638 940L633 956L628 971L621 986L615 1000L609 1015L604 1030L600 1045L595 1060L591 1076L585 1092L578 1108L569 1123L557 1137L543 1149L526 1161L508 1170L488 1179L469 1186L449 1194L429 1201L411 1209L392 1218L374 1229L355 1240L336 1251L315 1262L293 1272L270 1280L245 1286L220 1288L195 1288L170 1285L145 1279L122 1272L100 1262L79 1252L59 1241L41 1230L23 1218L6 1207L-10 1195L-24 1182L-38 1169L-50 1156L-61 1142L-71 1129L-81 1115L-90 1102L-101 1090L-113 1078L-127 1067L-142 1056L-159 1045L-177 1033L-195 1020L-212 1006L-227 991L-238 975L-246 958L-249 940L-248 922L-243 905L-236 888L-226 872L-216 856L-205 840L-195 825L-185 810L-176 795L-166 779L-157 764L-145 749L-133 734L-118 721L-101 709L-83 698L-63 689L-42 681L-20 674L2 668L24 663L46 658L68 654L89 650L111 647L133 645L155 644L177 645L199 646L220 650L241 654L261 658L281 662L301 666L321 668L342 669L365 669L388 668L414 666L440 665L467 666L495 668L521 673L545 680L567 691L585 703L600 719L612 735L620 753L627 771L632 789L636 807L639 824L641 841L643 858L645 875L645 892L644 908L642 924L638 940Z" stroke-width="1.5"/>
<path d="M678 940L673 957L667 974L661 990L655 1007L650 1023L646 1040L643 1057L639 1074L635 1092L629 1110L621 1128L610 1144L596 1159L580 1173L561 1185L540 1196L518 1205L496 1214L475 1222L454 1231L433 1241L413 1252L393 1264L372 1277L350 1290L327 1302L302 1312L275 1319L248 1324L220 1326L192 1324L165 1319L138 1312L113 1303L89 1293L66 1281L44 1270L24 1258L4 1245L-15 1233L-32 1219L-48 1206L-63 1191L-76 1177L-88 1162L-100 1147L-111 1133L-123 1120L-137 1107L-152 1094L-169 1083L-188 1071L-208 1058L-229 1045L-250 1031L-268 1015L-284 997L-295 979L-301 960L-303 940L-300 920L-294 901L-285 882L-274 864L-263 847L-251 830L-240 813L-230 796L-220 779L-209 762L-198 745L-185 728L-170 713L-153 698L-133 686L-112 674L-90 665L-66 656L-43 649L-19 642L5 636L28 630L52 625L76 620L100 616L124 614L148 613L172 613L196 616L220 619L243 623L266 627L288 631L310 634L333 635L358 635L383 634L411 632L440 630L470 629L500 630L530 633L558 640L583 650L606 662L624 678L640 695L651 714L660 734L667 754L672 774L676 794L680 813L683 832L685 850L687 869L687 887L686 905L683 923L678 940Z" stroke-width="2.4"/>
<path d="M717 940L712 959L706 977L701 995L696 1013L693 1031L690 1050L688 1069L685 1089L681 1109L674 1129L665 1148L652 1166L636 1183L617 1197L595 1210L572 1222L548 1232L524 1242L501 1252L479 1263L457 1274L435 1287L413 1301L389 1315L365 1329L338 1341L310 1351L281 1358L251 1362L220 1362L190 1358L160 1352L131 1344L104 1333L78 1322L53 1310L29 1298L7 1285L-15 1272L-35 1258L-54 1244L-71 1229L-87 1213L-102 1197L-116 1182L-129 1166L-142 1151L-157 1137L-174 1124L-192 1111L-213 1099L-236 1086L-260 1073L-284 1058L-306 1042L-326 1024L-341 1004L-352 983L-357 962L-357 940L-352 918L-344 897L-333 877L-321 857L-309 838L-297 819L-286 800L-275 781L-264 763L-252 744L-238 726L-223 708L-206 692L-186 677L-164 663L-141 652L-116 641L-91 632L-65 624L-40 616L-14 609L11 602L36 595L62 590L88 585L114 582L141 581L168 582L194 585L220 588L245 592L270 596L295 599L320 601L346 601L374 599L403 597L434 594L466 592L500 591L533 593L565 598L594 607L621 619L644 635L663 653L678 673L690 694L699 716L706 738L711 760L716 781L720 802L724 822L727 842L728 862L728 882L726 902L722 921L717 940Z" stroke-width="1.5"/>
<path d="M755 940L750 960L745 980L741 999L738 1019L736 1040L735 1061L734 1082L732 1104L728 1126L720 1148L709 1169L694 1188L676 1206L654 1221L630 1235L604 1247L579 1259L553 1270L528 1282L504 1294L481 1308L457 1323L432 1338L407 1354L379 1368L350 1380L319 1389L286 1395L253 1397L220 1396L187 1391L155 1383L125 1374L95 1363L67 1351L40 1338L15 1325L-10 1312L-33 1298L-55 1283L-75 1268L-94 1251L-112 1235L-128 1218L-143 1201L-158 1185L-174 1170L-192 1156L-212 1142L-235 1129L-260 1116L-287 1102L-314 1088L-340 1071L-364 1053L-384 1032L-399 1011L-408 988L-411 964L-409 940L-403 917L-393 894L-381 872L-368 850L-355 829L-343 808L-331 788L-319 767L-307 747L-293 727L-278 707L-260 689L-240 672L-218 656L-194 642L-168 630L-141 619L-115 609L-88 599L-61 590L-34 581L-7 573L20 565L48 559L76 554L105 551L134 550L163 551L192 554L220 557L248 561L275 564L302 566L330 566L360 565L391 562L423 558L458 555L494 553L530 553L566 557L600 564L630 575L658 590L681 608L700 629L715 652L727 675L736 699L743 722L750 746L755 768L760 791L764 813L766 835L767 856L767 878L764 899L760 920L755 940Z" stroke-width="1.5"/>
<path d="M793 940L789 961L785 983L783 1004L782 1026L782 1048L783 1072L783 1096L781 1120L776 1144L767 1168L754 1190L737 1210L715 1229L691 1245L664 1260L637 1273L609 1286L582 1299L556 1312L530 1327L505 1343L479 1359L453 1376L424 1392L394 1407L361 1418L327 1427L292 1431L256 1432L220 1429L185 1422L151 1414L118 1403L87 1391L57 1379L28 1366L0 1352L-26 1338L-51 1323L-75 1308L-97 1291L-117 1274L-136 1256L-153 1238L-171 1221L-188 1205L-208 1189L-229 1175L-254 1161L-281 1148L-310 1134L-340 1120L-370 1103L-398 1085L-423 1064L-443 1041L-457 1017L-464 992L-465 966L-461 940L-452 915L-440 890L-427 866L-414 843L-400 820L-388 798L-375 775L-363 753L-349 731L-334 710L-316 689L-296 670L-274 652L-249 636L-222 622L-195 608L-167 596L-138 585L-110 574L-82 563L-54 553L-25 543L4 535L34 528L65 522L96 519L127 519L159 520L190 523L220 526L250 529L280 531L310 532L341 530L374 527L408 523L445 518L483 515L522 513L561 515L599 520L634 530L665 544L693 562L716 583L735 606L750 631L762 656L772 682L780 707L787 732L793 756L798 780L803 804L805 827L806 850L805 873L802 896L798 918L793 940Z" stroke-width="1.5"/>
</g></svg>
